<svg xmlns="http://www.w3.org/2000/svg" viewBox="0 0 2426.18 661.06"><defs><style>.cls-1{fill:#1d1d1b;}</style></defs><g id="Capa_2" data-name="Capa 2"><g id="Layer_1" data-name="Layer 1"><path class="cls-1" d="M424.59,447.43,602.34,269.69V602.34H105.45A46.73,46.73,0,0,1,58.71,555.6V58.72H391.36L213.73,236.35h0a89.19,89.19,0,0,0-21,40.55L161.31,394.26l-26.65,99.43a26.71,26.71,0,0,0,32.7,32.7l99.44-26.64,117.61-31.52a89,89,0,0,0,40.17-20.81ZM661.05,211V126.6h0l-58.71,58.72h0L382.61,405l-.17.17-.05,0a29.83,29.83,0,1,1-42.07-42.3h0L661.05,42.21h0V0h-42.2L560.13,58.72h0L298.23,320.64h0a29.84,29.84,0,1,1-42.31-42.1h0L475.74,58.72,534.45,0H0V578.17a82.89,82.89,0,0,0,82.89,82.89H661.05V211ZM227.68,369.05a89.34,89.34,0,0,0,47.47,16.85A89.39,89.39,0,0,0,292,433.37L204.45,456.6Z"/><path class="cls-1" d="M760.1,338.43H944.8v41.05H809.36v77.16H916.89v32H809.36v78.81H948.49v41H760.1Z"/><path class="cls-1" d="M978.45,512.05h44.33c0,34.48,16.42,58.28,68.13,58.28,55,0,69-20.52,69-42.68,0-14.78-6.16-23.4-18.88-27.91-13.55-5.34-42.69-9-66.09-12.32-27.08-3.69-55.81-9.85-70.59-19.29-16.42-10.26-26.68-28.73-26.68-54.18,0-49.25,42.28-83.72,112.87-83.72,80,0,109.18,35.29,109.18,96.86h-44.33c0-39.81-21.75-58.69-64-58.69-40.63,0-64.85,16.82-64.85,41.45,0,15.19,5.34,24.22,16,29.14,11.9,5.75,42.27,10.67,65.67,14,28.32,4.51,54.59,9,71.42,18.06,18.46,9.44,29.14,28.32,29.14,53.35,0,43.51-25.45,84.14-117.39,84.14C1001.85,608.5,978.45,561.3,978.45,512.05Z"/><path class="cls-1" d="M1309.82,379.07h-83.73V338.43H1442.8v40.64h-83.73V608.5h-49.25Z"/><path class="cls-1" d="M1481.87,502.61V334.33h48.84V501.79c0,41,28.32,64.44,72.24,64.44,44.33,0,72.24-23.4,72.24-64.44V334.33h43.91V502.61c0,64.85-45.56,105.89-118.2,105.89C1527.84,608.5,1481.87,567.46,1481.87,502.61Z"/><path class="cls-1" d="M1769.63,338.43h103.43c84.55,0,136.67,48.85,136.67,134.63,0,86.6-49.25,135.44-128,135.44h-112Zm111.22,229c48.44,0,80-32.43,80-94.4,0-61.57-34.07-93.58-85.78-93.58h-56.23v188Z"/><path class="cls-1" d="M2052.76,338.43h48.84V608.5h-48.84Z"/><path class="cls-1" d="M2145.85,468.13c0-85.78,61.56-137.9,140-137.9,78.8,0,140.37,52.12,140.37,137.9,0,87.43-61.57,140.37-140.37,140.37C2207.41,608.5,2145.85,555.56,2145.85,468.13Zm230.25,0c0-60.33-40.22-96.86-90.29-96.86-49.67,0-89.89,36.53-89.89,96.86,0,62,40.22,99.33,89.89,99.33C2335.88,567.46,2376.1,530.11,2376.1,468.13Z"/><polygon class="cls-1" points="881.08 280.79 880.71 280.79 795.36 64.82 760.1 64.82 760.1 309 780.14 309 779.77 79.29 780.14 79.29 871.43 309 889.25 309 980.53 79.29 981.28 79.29 980.9 309 1002.06 309 1002.06 64.82 967.17 64.82 881.08 280.79"/><path class="cls-1" d="M1147.89,64.82,1042.5,309h22.27l26-62h136.57l26,62h24.49l-105-244.18Zm-50.1,165.87L1159,84.85h.75l60.86,145.84Z"/><polygon class="cls-1" points="1254.03 83.74 1337.89 83.74 1337.89 309 1359.05 309 1359.05 83.74 1443.28 83.74 1443.28 64.82 1254.03 64.82 1254.03 83.74"/><polygon class="cls-1" points="1502.65 194.33 1613.61 194.33 1613.61 178 1502.65 178 1502.65 84.11 1638.1 84.11 1638.1 64.82 1481.87 64.82 1481.87 309 1641.44 309 1641.44 289.7 1502.65 289.7 1502.65 194.33"/><path class="cls-1" d="M1871.14,133.47c0-43.42-28.2-68.65-85.72-68.65H1684.85V309h20.79V202.49h87.57c42.31,0,55.3,18.93,55.3,47.87V309h21.15V250.36c0-30.8-11.13-53.81-45.64-57.52v-.74C1857.41,188.39,1871.14,164.64,1871.14,133.47Zm-85.35,53.06h-80.15V84.11h79.78c43.79,0,65.31,17.82,65.31,50.84C1850.73,166.12,1833.29,186.53,1785.79,186.53Z"/><rect class="cls-1" x="1925.69" y="64.82" width="21.15" height="244.18"/><path class="cls-1" d="M2094.53,64.82,1989.14,309h22.27l26-62H2174l26,62h24.49l-105-244.18Zm-50.1,165.87,61.23-145.84h.75l60.86,145.84Z"/><polygon class="cls-1" points="2286.01 134.01 2286.01 125.87 2286.01 121.56 2286.01 64.82 2265.23 64.82 2265.23 114.97 2265.23 124.78 2265.23 134.01 2265.23 134.01 2286.01 134.01"/><polygon class="cls-1" points="2286.01 289.7 2286.01 239.81 2265.23 239.81 2265.23 239.81 2265.23 309 2418.22 309 2418.22 289.7 2286.01 289.7"/><path class="cls-1" d="M2298.09,144h-32.86v85.8h35.6c25,0,40.68-15.52,40.68-43C2341.51,159.52,2325,144,2298.09,144Zm2.48,72.76h-19.69V157.05h17.86c16.43,0,27.25,10.17,27.25,29.73S2316,216.77,2300.57,216.77Z"/><polygon class="cls-1" points="2418.22 157.04 2418.22 144.01 2360.43 144.01 2360.43 229.81 2418.22 229.81 2418.22 216.77 2376.07 216.77 2376.07 191.73 2410.24 191.73 2410.24 181.56 2376.07 181.56 2376.07 157.04 2418.22 157.04"/></g></g></svg>