<svg xmlns="http://www.w3.org/2000/svg" viewBox="0 0 1666.07 543.69"><defs><style>.cls-1{fill:#1d1d1b;}</style></defs><g id="Capa_2" data-name="Capa 2"><g id="Layer_1" data-name="Layer 1"><path class="cls-1" d="M0,273.62H184.7v41H49.25v77.16H156.79v32H49.25v78.8H188.39v41.05H0Z"/><path class="cls-1" d="M218.35,447.23h44.33c0,34.48,16.41,58.29,68.13,58.29,55,0,68.95-20.53,68.95-42.69,0-14.78-6.16-23.39-18.88-27.91-13.54-5.34-42.68-9-66.08-12.31-27.09-3.7-55.82-9.85-70.59-19.29-16.42-10.26-26.68-28.73-26.68-54.18,0-49.25,42.27-83.73,112.87-83.73,80,0,109.17,35.3,109.17,96.86H395.25c0-39.81-21.76-58.69-64-58.69-40.64,0-64.85,16.83-64.85,41.45,0,15.19,5.34,24.22,16,29.15,11.9,5.74,42.27,10.67,65.67,13.95,28.32,4.52,54.58,9,71.41,18.06,18.47,9.44,29.14,28.32,29.14,53.36,0,43.5-25.44,84.14-117.38,84.14C241.74,543.69,218.35,496.49,218.35,447.23Z"/><path class="cls-1" d="M549.71,314.25H466V273.62H682.69v40.63H599V543.69H549.71Z"/><path class="cls-1" d="M721.77,437.79V269.51h48.84V437c0,41,28.32,64.44,72.23,64.44,44.33,0,72.24-23.39,72.24-64.44V269.51H959V437.79c0,64.85-45.56,105.9-118.21,105.9C767.74,543.69,721.77,502.64,721.77,437.79Z"/><path class="cls-1" d="M1009.52,273.62H1113c84.55,0,136.68,48.84,136.68,134.62,0,86.6-49.25,135.45-128.06,135.45h-112Zm111.23,229c48.43,0,80-32.42,80-94.4,0-61.56-34.07-93.58-85.79-93.58h-56.22v188Z"/><path class="cls-1" d="M1292.66,273.62h48.84V543.69h-48.84Z"/><path class="cls-1" d="M1385.74,403.32c0-85.78,61.57-137.91,140-137.91,78.81,0,140.37,52.13,140.37,137.91,0,87.42-61.56,140.37-140.37,140.37C1447.31,543.69,1385.74,490.74,1385.74,403.32Zm230.26,0c0-60.34-40.22-96.87-90.3-96.87-49.66,0-89.88,36.53-89.88,96.87,0,62,40.22,99.32,89.88,99.32C1575.78,502.64,1616,465.29,1616,403.32Z"/><polygon class="cls-1" points="120.98 215.98 120.61 215.98 35.25 0 0 0 0 244.18 20.04 244.18 19.67 14.47 20.04 14.47 111.33 244.18 129.14 244.18 220.43 14.47 221.17 14.47 220.8 244.18 241.95 244.18 241.95 0 207.07 0 120.98 215.98"/><path class="cls-1" d="M387.79,0,282.4,244.18h22.26l26-62H467.2l26,62h24.49L412.65,0Zm-50.1,165.88L398.92,20h.74l60.86,145.84Z"/><polygon class="cls-1" points="493.92 18.93 577.79 18.93 577.79 244.18 598.94 244.18 598.94 18.93 683.18 18.93 683.18 0 493.92 0 493.92 18.93"/><polygon class="cls-1" points="742.55 129.51 853.5 129.51 853.5 113.18 742.55 113.18 742.55 19.3 878 19.3 878 0 721.77 0 721.77 244.18 881.34 244.18 881.34 224.88 742.55 224.88 742.55 129.51"/><path class="cls-1" d="M1111,68.65C1111,25.23,1082.84,0,1025.32,0H924.75V244.18h20.78V137.68h87.58c42.31,0,55.29,18.92,55.29,47.87v58.63h21.16V185.55c0-30.8-11.14-53.81-45.65-57.52v-.74C1097.31,123.57,1111,99.82,1111,68.65Zm-85.35,53.07H945.53V19.3h79.79c43.79,0,65.31,17.81,65.31,50.84C1090.63,101.31,1073.19,121.72,1025.69,121.72Z"/><rect class="cls-1" x="1165.58" width="21.15" height="244.18"/><path class="cls-1" d="M1334.43,0,1229,244.18h22.26l26-62h136.56l26,62h24.49L1359.29,0Zm-50.1,165.88L1345.56,20h.74l60.86,145.84Z"/><polygon class="cls-1" points="1525.91 69.19 1525.91 61.06 1525.91 56.74 1525.91 0 1505.13 0 1505.13 50.16 1505.13 59.97 1505.13 69.19 1505.13 69.19 1525.91 69.19"/><polygon class="cls-1" points="1525.91 224.88 1525.91 174.99 1505.13 174.99 1505.13 174.99 1505.13 244.18 1658.12 244.18 1658.12 224.88 1525.91 224.88"/><path class="cls-1" d="M1538,79.19h-32.86V165h35.59c25,0,40.69-15.52,40.69-43C1581.41,94.71,1564.85,79.19,1538,79.19Zm2.47,72.76h-19.69V92.23h17.87c16.43,0,27.25,10.17,27.25,29.73S1555.85,152,1540.46,152Z"/><polygon class="cls-1" points="1658.12 92.23 1658.12 79.19 1600.32 79.19 1600.32 164.99 1658.12 164.99 1658.12 151.95 1615.97 151.95 1615.97 126.91 1650.13 126.91 1650.13 116.74 1615.97 116.74 1615.97 92.23 1658.12 92.23"/></g></g></svg>