<svg xmlns="http://www.w3.org/2000/svg" viewBox="0 0 661.05 661.06"><defs><style>.cls-1{fill:#fff;}</style></defs><g id="Capa_2" data-name="Capa 2"><g id="Layer_1" data-name="Layer 1"><path class="cls-1" d="M424.59,447.43,602.34,269.69V602.34H105.45A46.73,46.73,0,0,1,58.71,555.6V58.72H391.36L213.73,236.35h0a89.19,89.19,0,0,0-21,40.55L161.31,394.26l-26.65,99.43a26.71,26.71,0,0,0,32.7,32.7l99.44-26.64,117.61-31.52a89,89,0,0,0,40.17-20.81ZM661.05,211V126.6h0l-58.71,58.72h0L382.61,405l-.17.17-.05,0a29.83,29.83,0,1,1-42.07-42.3h0L661.05,42.21h0V0h-42.2L560.13,58.72h0L298.23,320.64h0a29.84,29.84,0,1,1-42.31-42.1h0L475.74,58.72,534.45,0H0V578.17a82.89,82.89,0,0,0,82.89,82.89H661.05V211ZM227.68,369.05a89.34,89.34,0,0,0,47.47,16.85A89.39,89.39,0,0,0,292,433.37L204.45,456.6Z"/></g></g></svg>